<svg width="234" height="55" viewBox="0 0 234 55" fill="none" xmlns="http://www.w3.org/2000/svg">
<path fill-rule="evenodd" clip-rule="evenodd" d="M27.3874 0.187866C12.2618 0.187866 0 12.4159 0 27.5C0 42.5841 12.2618 54.8121 27.3874 54.8121C42.5131 54.8121 54.7748 42.5841 54.7748 27.5C54.7748 12.4159 42.5131 0.187866 27.3874 0.187866Z" fill="#FEFEFE"/>
<path fill-rule="evenodd" clip-rule="evenodd" d="M26.8001 19.5039C22.3226 19.5039 18.6929 23.1236 18.6929 27.5889C18.6929 32.054 22.3226 35.6737 26.8001 35.6737C31.2775 35.6737 34.9072 32.054 34.9072 27.5889C34.9072 23.1236 31.2775 19.5039 26.8001 19.5039Z" fill="#144828"/>
<path fill-rule="evenodd" clip-rule="evenodd" d="M26.8001 20.8442C23.0648 20.8442 20.0369 23.8639 20.0369 27.5889C20.0369 31.3138 23.0648 34.3334 26.8001 34.3334C30.5353 34.3334 33.5632 31.3138 33.5632 27.5889C33.5632 23.8639 30.5353 20.8442 26.8001 20.8442Z" fill="#03C242"/>
<path fill-rule="evenodd" clip-rule="evenodd" d="M26.8001 24.6676C25.1823 24.6676 23.8708 25.9755 23.8708 27.5889C23.8708 29.2022 25.1823 30.5101 26.8001 30.5101C28.4178 30.5101 29.7293 29.2022 29.7293 27.5889C29.7293 25.9755 28.4178 24.6676 26.8001 24.6676Z" fill="#2B2A29"/>
<path fill-rule="evenodd" clip-rule="evenodd" d="M29.1527 22.6824C28.1949 22.6824 27.4186 23.4567 27.4186 24.4117C27.4186 25.3669 28.1949 26.1412 29.1527 26.1412C30.1104 26.1412 30.8869 25.3669 30.8869 24.4117C30.8869 23.4567 30.1104 22.6824 29.1527 22.6824Z" fill="#FEFEFE"/>
<path fill-rule="evenodd" clip-rule="evenodd" d="M28.3894 26.4123C28.0953 26.4123 27.8569 26.6501 27.8569 26.9433C27.8569 27.2366 28.0953 27.4743 28.3894 27.4743C28.6834 27.4743 28.9218 27.2366 28.9218 26.9433C28.9218 26.6501 28.6834 26.4123 28.3894 26.4123Z" fill="#FEFEFE"/>
<path fill-rule="evenodd" clip-rule="evenodd" d="M21.5225 27.341C21.0197 27.341 20.612 27.7474 20.612 28.2489C20.612 28.7503 21.0197 29.1568 21.5225 29.1568C22.0253 29.1568 22.4329 28.7503 22.4329 28.2489C22.4329 27.7474 22.0253 27.341 21.5225 27.341Z" fill="#FEFEFE"/>
<path d="M89.6696 39.2579C89.6696 41.6572 88.4575 42.8569 86.0333 42.8569H74.9105C73.8053 42.8569 72.9052 42.5222 72.21 41.8526C71.5148 41.183 71.1672 40.2716 71.1672 39.1184V13.5067C71.1672 12.4279 71.4792 11.5258 72.103 10.8004C72.7269 10.0751 73.5558 9.71239 74.5897 9.71239H86.0333C88.2793 9.71239 89.4023 10.8748 89.4023 13.1998C89.4023 15.4875 88.2793 16.6314 86.0333 16.6314H78.3329V22.6577H85.4986C86.4967 22.6577 87.3167 22.9832 87.9584 23.6342C88.6001 24.2852 88.9209 25.1315 88.9209 26.173C88.9209 27.2146 88.6001 28.0609 87.9584 28.7119C87.3167 29.3629 86.4967 29.6884 85.4986 29.6884H78.3329V35.9379H86.0333C88.4575 35.9379 89.6696 37.0446 89.6696 39.2579ZM118.012 12.5581C118.012 13.7857 117.637 14.9203 116.889 15.9618L108.814 27.2333V39.0627C108.814 41.7782 107.584 43.136 105.124 43.136C104.019 43.136 103.154 42.764 102.531 42.02C101.907 41.276 101.595 40.3088 101.595 39.1184V27.2333L93.5734 15.9618C92.7179 14.8087 92.2901 13.6741 92.2901 12.5581C92.2901 11.6281 92.7357 10.847 93.6269 10.2145C94.3756 9.69377 95.2134 9.43338 96.1403 9.43338C97.495 9.43338 98.6358 10.1215 99.5627 11.4979L105.231 19.9794L110.846 11.4979C111.773 10.1215 112.878 9.43338 114.161 9.43338C115.088 9.43338 115.944 9.69377 116.728 10.2145C117.584 10.847 118.012 11.6281 118.012 12.5581ZM140.471 39.2579C140.471 41.6572 139.259 42.8569 136.835 42.8569H125.712C124.607 42.8569 123.707 42.5222 123.012 41.8526C122.317 41.183 121.969 40.2716 121.969 39.1184V13.5067C121.969 12.4279 122.281 11.5258 122.905 10.8004C123.529 10.0751 124.358 9.71239 125.391 9.71239H136.835C139.081 9.71239 140.204 10.8748 140.204 13.1998C140.204 15.4875 139.081 16.6314 136.835 16.6314H129.135V22.6577H136.3C137.298 22.6577 138.118 22.9832 138.76 23.6342C139.402 24.2852 139.723 25.1315 139.723 26.173C139.723 27.2146 139.402 28.0609 138.76 28.7119C138.118 29.3629 137.298 29.6884 136.3 29.6884H129.135V35.9379H136.835C139.259 35.9379 140.471 37.0446 140.471 39.2579ZM161.006 42.8569H149.402C148.404 42.8569 147.548 42.5222 146.835 41.8526C146.122 41.183 145.766 40.346 145.766 39.3416V13.3951C145.766 10.7539 146.96 9.43338 149.348 9.43338C151.737 9.43338 152.931 10.8283 152.931 13.6276V35.9379H160.899C161.933 35.9379 162.771 36.254 163.412 36.8772C164.054 37.5095 164.375 38.3558 164.375 39.4253C164.375 40.4204 164.054 41.2388 163.412 41.8898C162.771 42.5314 161.968 42.8569 161.006 42.8569ZM175.07 39.0627C175.07 41.7782 173.876 43.136 171.487 43.136C169.099 43.136 167.904 41.7968 167.904 39.1184V13.3951C167.904 10.7539 169.117 9.43338 171.541 9.43338C173.894 9.43338 175.07 10.7539 175.07 13.3951V39.0627ZM209.669 38.9604C209.669 40.1507 209.348 41.1365 208.706 41.9363C208.064 42.736 207.173 43.136 206.032 43.136C204.785 43.136 203.555 42.3548 202.343 40.7924L188.92 23.3273V39.3416C188.92 40.532 188.582 41.462 187.904 42.1316C187.227 42.8012 186.318 43.136 185.177 43.136C184.072 43.136 183.225 42.7547 182.637 41.9921C182.049 41.2295 181.755 40.2716 181.755 39.1184V13.3951C181.755 12.2791 182.067 11.3491 182.69 10.6051C183.314 9.86112 184.143 9.48916 185.177 9.48916C185.926 9.48916 186.567 9.67514 187.102 10.0471C187.886 10.5679 188.493 11.1259 188.911 11.7211L202.396 29.1769L202.449 29.1304V13.3858C202.449 12.2326 202.761 11.2933 203.385 10.5772C204.009 9.85185 204.856 9.48916 205.925 9.48916C208.421 9.48916 209.669 10.7911 209.669 13.3858V38.9604ZM234 39.2579C234 41.6572 232.788 42.8569 230.364 42.8569H219.241C218.136 42.8569 217.236 42.5222 216.54 41.8526C215.845 41.183 215.498 40.2716 215.498 39.1184V13.5067C215.498 12.4279 215.81 11.5258 216.433 10.8004C217.057 10.0751 217.886 9.71239 218.92 9.71239H230.364C232.61 9.71239 233.733 10.8748 233.733 13.1998C233.733 15.4875 232.61 16.6314 230.364 16.6314H222.663V22.6577H229.829C230.827 22.6577 231.647 22.9832 232.289 23.6342C232.931 24.2852 233.251 25.1315 233.251 26.173C233.251 27.2146 232.931 28.0609 232.289 28.7119C231.647 29.3629 230.827 29.6884 229.829 29.6884H222.663V35.9379H230.364C232.788 35.9379 234 37.0446 234 39.2579Z" fill="#0086C4"/>
<path d="M14.6275 44.6745C16.4987 46.0807 18.5722 47.1635 20.7619 47.8942C22.9495 48.6241 25.259 49.0034 27.6044 49.0034C33.5588 49.0034 38.9496 46.5965 42.8516 42.7052C46.7536 38.814 49.1671 33.438 49.1671 27.5C49.1671 21.562 46.7536 16.186 42.8516 12.2948C38.9496 8.40345 33.5588 5.99657 27.6044 5.99657C23.8838 5.99657 20.2973 6.95082 17.1504 8.69039C14.0012 10.4312 11.2884 12.9586 9.31801 16.1032L8.22112 15.4227C10.309 12.0906 13.1845 9.41207 16.5236 7.56627C19.8649 5.71929 23.6666 4.70612 27.6044 4.70612C33.9161 4.70612 39.6302 7.25749 43.7664 11.3823C47.9027 15.5073 50.4611 21.2057 50.4611 27.5C50.4611 33.7943 47.9027 39.4927 43.7665 43.6177C39.6302 47.7425 33.9161 50.2939 27.6044 50.2939C25.127 50.2939 22.6792 49.8904 20.3525 49.1141C18.0277 48.3383 15.8295 47.1911 13.8491 45.7029L14.6275 44.6745Z" fill="#00A0E3"/>
<path fill-rule="evenodd" clip-rule="evenodd" d="M5.54943 21.0699C5.64373 21.4956 6.22866 22.3218 6.54334 22.6519C7.82017 23.9914 10.0314 24.9082 11.8906 24.9082C11.8357 25.1247 10.4745 26.2456 10.2691 26.2791C9.56934 26.3934 8.27746 26.2523 7.56317 26.1431C5.88719 25.8869 4.70986 25.2879 3.38095 24.355C3.51812 24.5704 4.2458 25.2085 4.51715 25.4068C5.6067 26.203 6.90592 26.9346 8.20765 27.2284C8.47041 27.2876 8.82582 27.398 9.13073 27.398C9.00648 27.5933 8.05685 28.2585 7.84964 28.3665C6.60495 29.0152 5.50609 29.0399 4.06845 28.9221C2.88198 28.8249 2.77034 28.5942 2.26389 28.4699C2.34323 28.5839 3.38646 29.2205 3.51386 29.2983C4.75895 30.0587 6.04335 30.4607 7.52212 30.4424C8.63074 30.4287 10.5959 29.5138 11.5884 28.8775C12.5945 28.2324 13.2353 27.5856 14.0538 26.7008C14.5657 26.1474 15.7632 24.7988 16.3969 24.3951C18.1176 22.8305 20.4006 21.5403 22.4793 21.1825C23.3007 21.0412 25.8968 20.7639 26.7085 20.7473C28.116 20.7185 29.5828 20.8822 30.8712 21.2525C31.752 21.5055 32.6576 21.797 33.4818 22.1712C34.7127 22.7301 35.9972 23.3888 37.1087 24.1639C38.6457 25.2356 43.2984 29.6987 43.9249 30.8214C44.1148 31.0989 44.0862 31.036 43.9577 30.9561C43.8035 30.8895 43.584 30.746 43.3942 30.6527C42.7689 30.3452 42.0523 30.1613 41.3304 30.1378C40.2427 30.1024 39.3369 30.3205 38.4657 30.746C37.7173 31.1115 36.9306 31.5999 36.2793 32.0421C35.9247 32.2829 35.5788 32.493 35.226 32.7319C34.9109 32.9452 34.4496 33.2685 34.1338 33.4148L34.101 33.4494H34.0681L34.0353 33.4841H34.0025L33.9696 33.5186H33.9368C33.8279 33.675 32.2813 34.4616 32.1109 34.5363C31.0255 35.0119 29.7739 35.4598 28.5775 35.588C22.9047 36.1951 18.2098 31.5782 11.6947 31.1412C11.182 31.1068 10.6859 31.1261 10.1821 31.098C9.99582 31.098 9.65955 31.1402 9.48622 31.1609C8.38784 31.2922 6.98266 31.6699 6.08881 32.3573C5.96826 32.4499 5.71433 32.6191 5.64807 32.7233C5.82219 32.708 6.40624 32.449 7.02788 32.3774C7.56033 32.3161 7.71034 32.3 8.24492 32.3069C8.51477 32.3104 11.6881 32.6557 11.7592 32.7578C10.7191 32.7578 9.05698 33.6305 8.26855 34.3747C8.05456 34.5767 7.56316 35.0261 7.42229 35.2476C7.68135 35.184 8.52863 34.6531 8.87695 34.4964C9.39703 34.2625 9.91743 34.068 10.4842 33.9058C11.072 33.7374 11.7233 33.6583 12.3277 33.5637C12.9781 33.472 13.6665 33.4494 14.3876 33.4494C12.7138 34.0103 11.7981 34.202 10.4529 35.6017C10.363 35.6953 10.1122 35.9992 10.0835 36.1121C10.1465 36.0944 10.691 35.6983 10.7998 35.621C11.4038 35.1917 12.5388 34.5866 13.2249 34.3351C14.374 33.9141 15.0522 33.7331 16.2937 33.7256C16.4608 33.7246 17.1825 33.7907 17.3446 33.899C16.1079 33.899 14.4543 34.7264 13.4752 35.5668L12.707 36.3489C12.6091 36.4769 12.3208 36.8349 12.2848 36.9766C12.7502 36.6486 12.9862 36.3645 13.6425 36.0195C15.1046 35.2508 16.7616 34.8779 18.3962 34.9708C18.7467 34.9907 19.0953 35.0401 19.4803 35.0401L18.7943 35.2518C18.1626 35.4742 17.5806 35.7945 17.0489 36.2158C16.8983 36.3352 16.6815 36.4839 16.5475 36.6217C16.3903 36.7833 16.2421 36.8985 16.0828 37.0663L15.4438 37.777C15.3458 37.9049 15.303 37.964 15.2418 38.0486C15.3222 38.011 15.4235 37.9238 15.5478 37.8172C15.8329 37.5727 16.1648 37.3351 16.4801 37.1387C17.859 36.2796 19.3051 35.6754 20.9918 35.87C21.1631 35.8897 21.3142 35.9392 21.4844 35.9392C21.4216 36.0295 21.1611 36.0495 20.9069 36.1267C19.6553 36.5066 18.6237 37.1938 17.842 38.2954C17.7336 38.4482 17.6858 38.5383 17.6976 38.5303C17.7584 38.4893 17.8456 38.4056 17.9692 38.2563C19.4913 36.4156 25.6749 36.9113 27.531 36.9086C27.8943 36.908 28.6953 36.8241 29.0682 36.7283C29.2301 36.6866 29.3444 36.6331 29.5137 36.5747C31.4294 35.914 33.9007 34.2304 35.5572 33.2531C36.5031 32.6958 37.7092 32.0952 38.7861 31.8102C39.674 31.5751 40.5244 31.5604 41.4231 31.6563C42.1954 31.7386 43.3605 32.1531 44.0568 32.5153C44.7183 32.8594 45.3048 33.1344 45.9948 33.5186C45.9043 33.1106 45.4458 32.4199 45.1925 32.0807C44.7805 31.529 44.7017 31.4516 44.2912 30.8853C43.0447 29.107 42.6715 27.8454 41.1408 26.2477C38.9771 23.913 36.8733 22.2378 34.0792 20.7816C30.498 19.0869 29.6512 18.7558 25.6153 18.3129C23.8312 18.0555 21.0653 18.7107 19.4894 19.4196C18.8939 19.6875 19.0433 19.764 18.382 19.6669C17.399 19.5221 16.564 19.3137 15.7927 18.5883C15.439 18.2556 15.4187 18.2399 15.0875 17.809L14.7819 17.3698C14.8057 17.6711 15.2914 18.5234 15.5047 18.8222C15.8079 19.247 16.1596 19.6344 16.5823 19.9358C17.1063 20.3093 16.9527 20.1906 17.476 20.4821C17.4128 20.5728 17.2357 20.6658 17.1249 20.7349C15.8689 21.6062 15.9187 21.7503 14.3643 21.5094C13.0728 21.3092 11.9137 20.8511 11.1019 19.7214C11.001 19.581 10.92 19.4032 10.8392 19.3409C10.863 20.4606 11.7314 21.4555 12.6462 21.9344C13.1652 22.2061 14.0042 22.5568 14.6176 22.5568C14.5389 22.867 13.9522 23.1121 13.6839 23.1647C11.2156 23.6486 8.8779 23.7078 6.77127 22.2045C6.16216 21.7698 5.72946 21.1967 5.54943 21.0699Z" fill="#00A0E3"/>
<path fill-rule="evenodd" clip-rule="evenodd" d="M20.1045 17.7502C20.4642 17.7187 21.4023 17.5171 21.8173 17.4435C24.7476 16.9243 28.4167 17.6635 31.173 18.5842C31.6198 18.7334 32.0329 18.9112 32.4789 19.077L34.0137 19.7787L36.5796 21.2623C39.7449 23.2783 40.3261 24.4892 42.8734 26.7755C40.9394 22.3989 38.3499 19.6421 33.9981 17.7548L32.7672 17.3213C31.5699 17.0061 30.5439 16.775 29.2942 16.5848C26.7362 16.1958 23.5788 16.0283 21.1795 17.1181C20.9554 17.2199 20.2246 17.5777 20.1045 17.7502Z" fill="#00A0E3"/>
</svg>
